<svg xmlns="http://www.w3.org/2000/svg" viewBox="0 0 256 256" width="256" height="256">
  <defs>
    <linearGradient id="bg" x1="0" y1="0" x2="1" y2="1">
      <stop offset="0%" stop-color="#100d0c"/>
      <stop offset="48%" stop-color="#221716"/>
      <stop offset="100%" stop-color="#40211b"/>
    </linearGradient>
    <linearGradient id="metal" x1="0" y1="0" x2="0" y2="1">
      <stop offset="0%" stop-color="#f1eadc"/>
      <stop offset="100%" stop-color="#98908a"/>
    </linearGradient>
    <linearGradient id="gold" x1="0" y1="0" x2="1" y2="1">
      <stop offset="0%" stop-color="#f0d2a4"/>
      <stop offset="100%" stop-color="#9d6933"/>
    </linearGradient>
    <radialGradient id="ember" cx="50%" cy="42%" r="58%">
      <stop offset="0%" stop-color="#ffb46a" stop-opacity="0.95"/>
      <stop offset="55%" stop-color="#d86130" stop-opacity="0.28"/>
      <stop offset="100%" stop-color="#d86130" stop-opacity="0"/>
    </radialGradient>
  </defs>

  <rect width="256" height="256" rx="52" fill="url(#bg)"/>
  <circle cx="128" cy="104" r="72" fill="url(#ember)"/>
  <path d="M128 34 188 84 168 183 128 220 88 183 68 84Z" fill="none" stroke="url(#gold)" stroke-width="10"/>
  <path d="M128 56 165 87 151 170 128 189 105 170 91 87Z" fill="#140f11" stroke="#6d3d28" stroke-width="3"/>
  <path d="M128 68 143 92 136 156 120 156 113 92Z" fill="url(#metal)"/>
  <path d="M112 154h32v9h-32Z" fill="#be8645"/>
  <path d="M102 163h52l-11 11h-30Z" fill="#5d3024"/>
  <path d="M119 92h18l-9-15Z" fill="#fff5db"/>
  <path d="M80 98c8-10 17-18 29-24" fill="none" stroke="#f5d7ad" stroke-width="5" stroke-linecap="round" stroke-opacity="0.55"/>
  <path d="M176 100c-7-10-16-18-28-24" fill="none" stroke="#f5d7ad" stroke-width="5" stroke-linecap="round" stroke-opacity="0.55"/>
  <path d="M87 192h82" fill="none" stroke="#7a4d33" stroke-width="6" stroke-linecap="round" stroke-opacity="0.8"/>
</svg>
